<?xml version="1.0" standalone="no"?>
<!DOCTYPE svg PUBLIC "-//W3C//DTD SVG 20010904//EN"
 "http://www.w3.org/TR/2001/REC-SVG-20010904/DTD/svg10.dtd">
<svg version="1.0" xmlns="http://www.w3.org/2000/svg"
 width="293.000000pt" height="293.000000pt" viewBox="0 0 293.000000 293.000000"
 preserveAspectRatio="xMidYMid meet">
<metadata>
Created by potrace 1.11, written by Peter Selinger 2001-2013
</metadata>
<g transform="translate(0.000000,293.000000) scale(0.100000,-0.100000)"
fill="#000000" stroke="none">
<path d="M1630 2562 c-21 -11 -44 -36 -58 -63 -23 -42 -24 -51 -18 -189 4
-100 1 -175 -8 -240 -8 -52 -17 -135 -21 -185 -16 -220 -60 -521 -100 -688
-14 -55 -29 -156 -36 -226 -16 -188 -51 -267 -145 -333 -94 -67 -350 -118
-585 -118 -62 0 -79 -3 -79 -14 0 -22 89 -29 299 -23 205 6 290 21 385 66 111
52 179 133 231 273 18 48 35 63 35 30 0 -10 -16 -50 -35 -91 -19 -40 -35 -78
-35 -85 0 -18 164 -174 196 -186 14 -6 87 -10 162 -10 142 0 182 10 182 45 0
26 -58 47 -109 40 -41 -5 -54 -2 -106 27 -33 19 -61 41 -63 49 -2 9 30 65 69
125 40 60 78 129 86 154 18 59 9 122 -28 201 -40 85 -45 131 -20 199 16 43 20
49 21 27 0 -15 10 -38 23 -50 12 -13 30 -35 40 -50 9 -15 21 -27 25 -27 4 0 8
71 9 158 2 156 2 158 -39 312 -33 123 -43 179 -48 275 -5 107 -10 128 -38 189
-35 74 -41 126 -17 146 8 7 46 16 83 20 68 7 112 23 112 40 0 4 14 11 31 15
29 7 53 40 42 59 -3 4 -30 19 -60 32 -30 14 -71 38 -91 53 -69 55 -226 78
-292 43z m-20 -1862 c-6 -12 -14 -19 -17 -17 -2 3 1 15 7 27 6 12 14 19 17 17
2 -3 -1 -15 -7 -27z"/>
</g>
</svg>
